<mxfile host="app.diagrams.net" modified="2022-04-29T10:21:32.607Z" agent="5.0 (X11; Linux x86_64) AppleWebKit/537.36 (KHTML, like Gecko) Chrome/101.0.4951.41 Safari/537.36" etag="YITWrgHjWpmz4wagBmDi" version="17.4.6" type="github">
  <diagram id="Lk_EI4CYU3kLC5U5zO_d" name="Page-1">
    <mxGraphModel dx="1865" dy="553" grid="0" gridSize="10" guides="1" tooltips="1" connect="1" arrows="1" fold="1" page="1" pageScale="1" pageWidth="827" pageHeight="1169" background="none" math="0" shadow="0">
      <root>
        <mxCell id="0" />
        <mxCell id="1" parent="0" />
        <mxCell id="JeV1txEWlBGmem2Ouphh-2" value="User" style="swimlane;childLayout=stackLayout;horizontal=1;startSize=30;horizontalStack=0;rounded=1;fontSize=14;fontStyle=0;strokeWidth=2;resizeParent=0;resizeLast=1;shadow=1;dashed=0;align=center;gradientColor=none;" parent="1" vertex="1">
          <mxGeometry x="260" y="43" width="326" height="158" as="geometry">
            <mxRectangle x="334" y="40" width="70" height="30" as="alternateBounds" />
          </mxGeometry>
        </mxCell>
        <mxCell id="fF6uDWlk83DuF6IXU6-m-5" value="&lt;span&gt;- nome&lt;/span&gt;&lt;br&gt;&lt;span&gt;- cognome&lt;/span&gt;&lt;br&gt;&lt;span&gt;- data di nascita&lt;/span&gt;&lt;br&gt;&lt;span&gt;- sesso&lt;/span&gt;&lt;br&gt;&lt;span&gt;- email&lt;/span&gt;&lt;br&gt;&lt;span&gt;- numero di telefono&lt;br&gt;- username&lt;br&gt;- password&lt;br&gt;&lt;/span&gt;" style="text;html=1;align=left;verticalAlign=top;resizable=0;points=[];autosize=1;strokeColor=none;fillColor=none;" parent="JeV1txEWlBGmem2Ouphh-2" vertex="1">
          <mxGeometry y="30" width="326" height="128" as="geometry" />
        </mxCell>
        <mxCell id="l8wX_0Qu8CBymqKlJUEb-30" style="edgeStyle=orthogonalEdgeStyle;rounded=0;orthogonalLoop=1;jettySize=auto;html=1;exitX=0.5;exitY=0;exitDx=0;exitDy=0;entryX=0.5;entryY=1;entryDx=0;entryDy=0;endArrow=none;endFill=0;" parent="1" source="JeV1txEWlBGmem2Ouphh-8" target="JeV1txEWlBGmem2Ouphh-2" edge="1">
          <mxGeometry relative="1" as="geometry" />
        </mxCell>
        <mxCell id="l8wX_0Qu8CBymqKlJUEb-31" style="edgeStyle=orthogonalEdgeStyle;rounded=0;orthogonalLoop=1;jettySize=auto;html=1;exitX=0.5;exitY=0;exitDx=0;exitDy=0;entryX=0.5;entryY=1;entryDx=0;entryDy=0;endArrow=none;endFill=0;" parent="1" source="JeV1txEWlBGmem2Ouphh-9" target="JeV1txEWlBGmem2Ouphh-2" edge="1">
          <mxGeometry relative="1" as="geometry" />
        </mxCell>
        <mxCell id="JeV1txEWlBGmem2Ouphh-9" value="Receptionist" style="swimlane;childLayout=stackLayout;horizontal=1;startSize=30;horizontalStack=0;rounded=1;fontSize=14;fontStyle=0;strokeWidth=2;resizeParent=0;resizeLast=1;shadow=1;dashed=0;align=center;gradientColor=none;" parent="1" vertex="1">
          <mxGeometry x="556" y="266" width="160" height="160" as="geometry" />
        </mxCell>
        <mxCell id="MB48RITWyxrm8_n9HD4J-6" value="- data di assunzione&lt;br&gt;- note&lt;br&gt;- id univoco" style="text;html=1;align=left;verticalAlign=top;resizable=0;points=[];autosize=1;strokeColor=none;fillColor=none;" parent="JeV1txEWlBGmem2Ouphh-9" vertex="1">
          <mxGeometry y="30" width="160" height="130" as="geometry" />
        </mxCell>
        <mxCell id="GMa8dljinRbpCNh-_MKq-25" style="edgeStyle=orthogonalEdgeStyle;rounded=0;orthogonalLoop=1;jettySize=auto;html=1;exitX=0.5;exitY=0;exitDx=0;exitDy=0;endArrow=none;endFill=0;" parent="1" source="JeV1txEWlBGmem2Ouphh-10" target="fF6uDWlk83DuF6IXU6-m-5" edge="1">
          <mxGeometry relative="1" as="geometry" />
        </mxCell>
        <mxCell id="JeV1txEWlBGmem2Ouphh-10" value="Admin" style="swimlane;childLayout=stackLayout;horizontal=1;startSize=30;horizontalStack=0;rounded=1;fontSize=14;fontStyle=0;strokeWidth=2;resizeParent=0;resizeLast=1;shadow=1;dashed=0;align=center;gradientColor=none;" parent="1" vertex="1">
          <mxGeometry x="343" y="266" width="160" height="160" as="geometry" />
        </mxCell>
        <mxCell id="MB48RITWyxrm8_n9HD4J-7" value="- contatto emergenza" style="text;html=1;align=left;verticalAlign=top;resizable=0;points=[];autosize=1;strokeColor=none;fillColor=none;" parent="JeV1txEWlBGmem2Ouphh-10" vertex="1">
          <mxGeometry y="30" width="160" height="130" as="geometry" />
        </mxCell>
        <mxCell id="GMa8dljinRbpCNh-_MKq-5" style="edgeStyle=orthogonalEdgeStyle;rounded=0;orthogonalLoop=1;jettySize=auto;html=1;exitX=0;exitY=0.25;exitDx=0;exitDy=0;endArrow=none;endFill=0;" parent="1" source="JeV1txEWlBGmem2Ouphh-17" edge="1">
          <mxGeometry relative="1" as="geometry">
            <mxPoint x="413.20001220703125" y="871" as="targetPoint" />
          </mxGeometry>
        </mxCell>
        <mxCell id="JeV1txEWlBGmem2Ouphh-17" value="Stanza" style="swimlane;childLayout=stackLayout;horizontal=1;startSize=30;horizontalStack=0;rounded=1;fontSize=14;fontStyle=0;strokeWidth=2;resizeParent=0;resizeLast=1;shadow=1;dashed=0;align=center;gradientColor=none;" parent="1" vertex="1">
          <mxGeometry x="476" y="831" width="306" height="160" as="geometry" />
        </mxCell>
        <mxCell id="l8wX_0Qu8CBymqKlJUEb-41" value="- numero&lt;br&gt;- tipo&amp;nbsp;&lt;br&gt;- piano&lt;br&gt;- categoria&lt;br&gt;- dettagli&lt;br&gt;- vista&lt;br&gt;- stato (prenotabile/manutenzione)" style="text;html=1;align=left;verticalAlign=top;resizable=0;points=[];autosize=1;strokeColor=none;fillColor=none;" parent="JeV1txEWlBGmem2Ouphh-17" vertex="1">
          <mxGeometry y="30" width="306" height="130" as="geometry" />
        </mxCell>
        <mxCell id="l8wX_0Qu8CBymqKlJUEb-38" style="edgeStyle=orthogonalEdgeStyle;rounded=0;orthogonalLoop=1;jettySize=auto;html=1;entryX=0.5;entryY=0;entryDx=0;entryDy=0;endArrow=none;endFill=0;" parent="1" source="JeV1txEWlBGmem2Ouphh-18" target="JeV1txEWlBGmem2Ouphh-17" edge="1">
          <mxGeometry relative="1" as="geometry" />
        </mxCell>
        <mxCell id="GMa8dljinRbpCNh-_MKq-24" style="edgeStyle=orthogonalEdgeStyle;rounded=0;orthogonalLoop=1;jettySize=auto;html=1;exitX=0.5;exitY=0;exitDx=0;exitDy=0;entryX=0.46;entryY=1.016;entryDx=0;entryDy=0;entryPerimeter=0;endArrow=none;endFill=0;" parent="1" source="JeV1txEWlBGmem2Ouphh-18" target="MB48RITWyxrm8_n9HD4J-6" edge="1">
          <mxGeometry relative="1" as="geometry" />
        </mxCell>
        <mxCell id="JeV1txEWlBGmem2Ouphh-18" value="CalendarioDisponibilita&#39;" style="swimlane;childLayout=stackLayout;horizontal=1;startSize=30;horizontalStack=0;rounded=1;fontSize=14;fontStyle=0;strokeWidth=2;resizeParent=0;resizeLast=1;shadow=1;dashed=0;align=center;gradientColor=none;" parent="1" vertex="1">
          <mxGeometry x="449" y="631" width="360" height="120" as="geometry">
            <mxRectangle x="440" y="520" width="180" height="30" as="alternateBounds" />
          </mxGeometry>
        </mxCell>
        <mxCell id="l8wX_0Qu8CBymqKlJUEb-42" value="- camere disponibili&lt;br&gt;- camere occupate&lt;br&gt;- prezzo giornaliero" style="text;html=1;align=left;verticalAlign=top;resizable=0;points=[];autosize=1;strokeColor=none;fillColor=none;" parent="JeV1txEWlBGmem2Ouphh-18" vertex="1">
          <mxGeometry y="30" width="360" height="90" as="geometry" />
        </mxCell>
        <mxCell id="GMa8dljinRbpCNh-_MKq-1" style="edgeStyle=orthogonalEdgeStyle;rounded=0;orthogonalLoop=1;jettySize=auto;html=1;exitX=1;exitY=0.75;exitDx=0;exitDy=0;endArrow=none;endFill=0;" parent="1" source="JeV1txEWlBGmem2Ouphh-80" edge="1">
          <mxGeometry relative="1" as="geometry">
            <mxPoint x="413" y="871" as="targetPoint" />
          </mxGeometry>
        </mxCell>
        <mxCell id="JeV1txEWlBGmem2Ouphh-80" value="Prenotazione" style="swimlane;childLayout=stackLayout;horizontal=1;startSize=30;horizontalStack=0;rounded=1;fontSize=14;fontStyle=0;strokeWidth=2;resizeParent=0;resizeLast=1;shadow=1;dashed=0;align=center;gradientColor=none;" parent="1" vertex="1">
          <mxGeometry x="89" y="611" width="225" height="140" as="geometry" />
        </mxCell>
        <mxCell id="l8wX_0Qu8CBymqKlJUEb-43" value="- numero occupanti&lt;br&gt;- stato (attiva/cancellata/overbooking)" style="text;html=1;align=left;verticalAlign=top;resizable=0;points=[];autosize=1;strokeColor=none;fillColor=none;" parent="JeV1txEWlBGmem2Ouphh-80" vertex="1">
          <mxGeometry y="30" width="225" height="110" as="geometry" />
        </mxCell>
        <mxCell id="l8wX_0Qu8CBymqKlJUEb-3" value="" style="triangle;whiteSpace=wrap;html=1;direction=south;fillColor=#000000;" parent="1" vertex="1">
          <mxGeometry x="229" y="506" width="10" height="20" as="geometry" />
        </mxCell>
        <mxCell id="l8wX_0Qu8CBymqKlJUEb-4" value="effettua" style="text;html=1;align=center;verticalAlign=middle;resizable=0;points=[];autosize=1;strokeColor=none;fillColor=none;" parent="1" vertex="1">
          <mxGeometry x="229" y="506" width="60" height="20" as="geometry" />
        </mxCell>
        <mxCell id="l8wX_0Qu8CBymqKlJUEb-45" style="edgeStyle=orthogonalEdgeStyle;rounded=0;orthogonalLoop=1;jettySize=auto;html=1;exitX=0.5;exitY=0;exitDx=0;exitDy=0;entryX=0.532;entryY=1.044;entryDx=0;entryDy=0;entryPerimeter=0;endArrow=none;endFill=0;" parent="1" source="l8wX_0Qu8CBymqKlJUEb-11" target="l8wX_0Qu8CBymqKlJUEb-43" edge="1">
          <mxGeometry relative="1" as="geometry" />
        </mxCell>
        <mxCell id="l8wX_0Qu8CBymqKlJUEb-11" value="MetodoPagamento" style="swimlane;childLayout=stackLayout;horizontal=1;startSize=30;horizontalStack=0;rounded=1;fontSize=14;fontStyle=0;strokeWidth=2;resizeParent=0;resizeLast=1;shadow=1;dashed=0;align=center;gradientColor=none;" parent="1" vertex="1">
          <mxGeometry x="56" y="902" width="306" height="73" as="geometry" />
        </mxCell>
        <mxCell id="VuhvjQLtFCTKqvAYBOx8-2" value="- nome titolare&lt;br&gt;- cognome titolare&lt;br&gt;" style="text;html=1;align=left;verticalAlign=top;resizable=0;points=[];autosize=1;strokeColor=none;fillColor=none;" parent="l8wX_0Qu8CBymqKlJUEb-11" vertex="1">
          <mxGeometry y="30" width="306" height="43" as="geometry" />
        </mxCell>
        <mxCell id="VuhvjQLtFCTKqvAYBOx8-3" style="edgeStyle=orthogonalEdgeStyle;rounded=0;orthogonalLoop=1;jettySize=auto;html=1;exitX=0.5;exitY=0;exitDx=0;exitDy=0;entryX=0.081;entryY=1.007;entryDx=0;entryDy=0;entryPerimeter=0;endArrow=none;endFill=0;" parent="1" source="l8wX_0Qu8CBymqKlJUEb-12" target="VuhvjQLtFCTKqvAYBOx8-2" edge="1">
          <mxGeometry relative="1" as="geometry" />
        </mxCell>
        <mxCell id="l8wX_0Qu8CBymqKlJUEb-12" value="CartaCredito" style="swimlane;childLayout=stackLayout;horizontal=1;startSize=30;horizontalStack=0;rounded=1;fontSize=14;fontStyle=0;strokeWidth=2;resizeParent=0;resizeLast=1;shadow=1;dashed=0;align=center;gradientColor=none;" parent="1" vertex="1">
          <mxGeometry x="20" y="1022" width="120" height="135" as="geometry" />
        </mxCell>
        <mxCell id="l8wX_0Qu8CBymqKlJUEb-39" value="- data scadenza&lt;br&gt;- numero&lt;br&gt;&lt;div&gt;&lt;span&gt;- ccv&lt;/span&gt;&lt;/div&gt;" style="text;html=1;align=left;verticalAlign=top;resizable=0;points=[];autosize=1;strokeColor=none;fillColor=none;" parent="l8wX_0Qu8CBymqKlJUEb-12" vertex="1">
          <mxGeometry y="30" width="120" height="105" as="geometry" />
        </mxCell>
        <mxCell id="VuhvjQLtFCTKqvAYBOx8-5" style="edgeStyle=orthogonalEdgeStyle;rounded=0;orthogonalLoop=1;jettySize=auto;html=1;exitX=0.5;exitY=0;exitDx=0;exitDy=0;entryX=0.516;entryY=0.988;entryDx=0;entryDy=0;entryPerimeter=0;endArrow=none;endFill=0;" parent="1" source="l8wX_0Qu8CBymqKlJUEb-13" target="VuhvjQLtFCTKqvAYBOx8-2" edge="1">
          <mxGeometry relative="1" as="geometry" />
        </mxCell>
        <mxCell id="l8wX_0Qu8CBymqKlJUEb-13" value="Bonifico" style="swimlane;childLayout=stackLayout;horizontal=1;startSize=30;horizontalStack=0;rounded=1;fontSize=14;fontStyle=0;strokeWidth=2;resizeParent=0;resizeLast=1;shadow=1;dashed=0;align=center;gradientColor=none;" parent="1" vertex="1">
          <mxGeometry x="154" y="1022" width="120" height="135" as="geometry" />
        </mxCell>
        <mxCell id="l8wX_0Qu8CBymqKlJUEb-40" value="- casuale" style="text;html=1;align=left;verticalAlign=top;resizable=0;points=[];autosize=1;strokeColor=none;fillColor=none;" parent="l8wX_0Qu8CBymqKlJUEb-13" vertex="1">
          <mxGeometry y="30" width="120" height="105" as="geometry" />
        </mxCell>
        <mxCell id="VuhvjQLtFCTKqvAYBOx8-6" style="edgeStyle=orthogonalEdgeStyle;rounded=0;orthogonalLoop=1;jettySize=auto;html=1;exitX=0.5;exitY=0;exitDx=0;exitDy=0;entryX=0.953;entryY=0.97;entryDx=0;entryDy=0;entryPerimeter=0;endArrow=none;endFill=0;" parent="1" source="l8wX_0Qu8CBymqKlJUEb-14" target="VuhvjQLtFCTKqvAYBOx8-2" edge="1">
          <mxGeometry relative="1" as="geometry" />
        </mxCell>
        <mxCell id="l8wX_0Qu8CBymqKlJUEb-14" value="InStruttura" style="swimlane;childLayout=stackLayout;horizontal=1;startSize=30;horizontalStack=0;rounded=1;fontSize=14;fontStyle=0;strokeWidth=2;resizeParent=0;resizeLast=1;shadow=1;dashed=0;align=center;gradientColor=none;" parent="1" vertex="1">
          <mxGeometry x="288" y="1023" width="119.11" height="134" as="geometry" />
        </mxCell>
        <mxCell id="l8wX_0Qu8CBymqKlJUEb-21" value="" style="triangle;whiteSpace=wrap;html=1;direction=south;fillColor=#000000;" parent="1" vertex="1">
          <mxGeometry x="636" y="506" width="10" height="20" as="geometry" />
        </mxCell>
        <mxCell id="l8wX_0Qu8CBymqKlJUEb-22" value="gestisce" style="text;html=1;align=center;verticalAlign=middle;resizable=0;points=[];autosize=1;strokeColor=none;fillColor=none;" parent="1" vertex="1">
          <mxGeometry x="639" y="506" width="60" height="20" as="geometry" />
        </mxCell>
        <mxCell id="l8wX_0Qu8CBymqKlJUEb-25" value="" style="triangle;whiteSpace=wrap;html=1;direction=south;fillColor=#000000;" parent="1" vertex="1">
          <mxGeometry x="217" y="820" width="10" height="20" as="geometry" />
        </mxCell>
        <mxCell id="l8wX_0Qu8CBymqKlJUEb-26" value="pagata tramite" style="text;html=1;align=center;verticalAlign=middle;resizable=0;points=[];autosize=1;strokeColor=none;fillColor=none;" parent="1" vertex="1">
          <mxGeometry x="224" y="820" width="90" height="20" as="geometry" />
        </mxCell>
        <mxCell id="l8wX_0Qu8CBymqKlJUEb-33" value="" style="triangle;whiteSpace=wrap;html=1;direction=south;fillColor=#000000;rotation=90;" parent="1" vertex="1">
          <mxGeometry x="-14" y="660" width="10" height="20" as="geometry" />
        </mxCell>
        <mxCell id="l8wX_0Qu8CBymqKlJUEb-34" value="riferita_a" style="text;html=1;align=center;verticalAlign=middle;resizable=0;points=[];autosize=1;strokeColor=none;fillColor=none;" parent="1" vertex="1">
          <mxGeometry x="-4" y="660" width="60" height="20" as="geometry" />
        </mxCell>
        <mxCell id="l8wX_0Qu8CBymqKlJUEb-36" value="" style="triangle;whiteSpace=wrap;html=1;direction=south;fillColor=#000000;" parent="1" vertex="1">
          <mxGeometry x="639" y="781" width="10" height="20" as="geometry" />
        </mxCell>
        <mxCell id="l8wX_0Qu8CBymqKlJUEb-37" value="controlla" style="text;html=1;align=center;verticalAlign=middle;resizable=0;points=[];autosize=1;strokeColor=none;fillColor=none;" parent="1" vertex="1">
          <mxGeometry x="643.5" y="781" width="60" height="20" as="geometry" />
        </mxCell>
        <mxCell id="l8wX_0Qu8CBymqKlJUEb-53" value="0..*" style="text;html=1;align=center;verticalAlign=middle;resizable=0;points=[];autosize=1;strokeColor=none;fillColor=none;" parent="1" vertex="1">
          <mxGeometry x="220" y="426" width="28" height="18" as="geometry" />
        </mxCell>
        <mxCell id="l8wX_0Qu8CBymqKlJUEb-54" value="0..*" style="text;html=1;align=center;verticalAlign=middle;resizable=0;points=[];autosize=1;strokeColor=none;fillColor=none;" parent="1" vertex="1">
          <mxGeometry x="224" y="591" width="28" height="18" as="geometry" />
        </mxCell>
        <mxCell id="l8wX_0Qu8CBymqKlJUEb-55" value="1..*" style="text;html=1;align=center;verticalAlign=middle;resizable=0;points=[];autosize=1;strokeColor=none;fillColor=none;" parent="1" vertex="1">
          <mxGeometry x="628" y="426" width="28" height="18" as="geometry" />
        </mxCell>
        <mxCell id="l8wX_0Qu8CBymqKlJUEb-56" value="1" style="text;html=1;align=center;verticalAlign=middle;resizable=0;points=[];autosize=1;strokeColor=none;fillColor=none;" parent="1" vertex="1">
          <mxGeometry x="633" y="606" width="16" height="18" as="geometry" />
        </mxCell>
        <mxCell id="l8wX_0Qu8CBymqKlJUEb-57" value="0..*" style="text;html=1;align=center;verticalAlign=middle;resizable=0;points=[];autosize=1;strokeColor=none;fillColor=none;" parent="1" vertex="1">
          <mxGeometry x="209" y="753" width="28" height="18" as="geometry" />
        </mxCell>
        <mxCell id="l8wX_0Qu8CBymqKlJUEb-58" value="1..*" style="text;html=1;align=center;verticalAlign=middle;resizable=0;points=[];autosize=1;strokeColor=none;fillColor=none;" parent="1" vertex="1">
          <mxGeometry x="209" y="880" width="28" height="18" as="geometry" />
        </mxCell>
        <mxCell id="l8wX_0Qu8CBymqKlJUEb-59" value="0..*" style="text;html=1;align=center;verticalAlign=middle;resizable=0;points=[];autosize=1;strokeColor=none;fillColor=none;" parent="1" vertex="1">
          <mxGeometry x="61" y="680" width="28" height="18" as="geometry" />
        </mxCell>
        <mxCell id="l8wX_0Qu8CBymqKlJUEb-60" value="1" style="text;html=1;align=center;verticalAlign=middle;resizable=0;points=[];autosize=1;strokeColor=none;fillColor=none;" parent="1" vertex="1">
          <mxGeometry x="-60" y="680" width="16" height="18" as="geometry" />
        </mxCell>
        <mxCell id="l8wX_0Qu8CBymqKlJUEb-61" value="1" style="text;html=1;align=center;verticalAlign=middle;resizable=0;points=[];autosize=1;strokeColor=none;fillColor=none;" parent="1" vertex="1">
          <mxGeometry x="628" y="753" width="16" height="18" as="geometry" />
        </mxCell>
        <mxCell id="l8wX_0Qu8CBymqKlJUEb-62" value="*" style="text;html=1;align=center;verticalAlign=middle;resizable=0;points=[];autosize=1;strokeColor=none;fillColor=none;" parent="1" vertex="1">
          <mxGeometry x="628.5" y="813" width="15" height="18" as="geometry" />
        </mxCell>
        <mxCell id="fF6uDWlk83DuF6IXU6-m-2" style="edgeStyle=orthogonalEdgeStyle;rounded=0;orthogonalLoop=1;jettySize=auto;html=1;entryX=0.593;entryY=-0.001;entryDx=0;entryDy=0;entryPerimeter=0;endArrow=none;endFill=0;" parent="1" source="MB48RITWyxrm8_n9HD4J-2" target="JeV1txEWlBGmem2Ouphh-80" edge="1">
          <mxGeometry relative="1" as="geometry" />
        </mxCell>
        <mxCell id="JeV1txEWlBGmem2Ouphh-8" value="UtenteRegistrato" style="swimlane;childLayout=stackLayout;horizontal=1;startSize=30;horizontalStack=0;rounded=1;fontSize=14;fontStyle=0;strokeWidth=2;resizeParent=0;resizeLast=1;shadow=1;dashed=0;align=center;gradientColor=none;" parent="1" vertex="1">
          <mxGeometry x="143" y="266" width="160" height="160" as="geometry">
            <mxRectangle x="240" y="160" width="180" height="30" as="alternateBounds" />
          </mxGeometry>
        </mxCell>
        <mxCell id="MB48RITWyxrm8_n9HD4J-2" value="- id univoco&lt;br&gt;&lt;div&gt;&lt;br&gt;&lt;/div&gt;" style="text;html=1;align=left;verticalAlign=top;resizable=0;points=[];autosize=1;strokeColor=none;fillColor=none;" parent="JeV1txEWlBGmem2Ouphh-8" vertex="1">
          <mxGeometry y="30" width="160" height="130" as="geometry" />
        </mxCell>
        <mxCell id="GMa8dljinRbpCNh-_MKq-3" value="" style="triangle;whiteSpace=wrap;html=1;direction=south;fillColor=#000000;" parent="1" vertex="1">
          <mxGeometry x="419" y="781" width="10" height="20" as="geometry" />
        </mxCell>
        <mxCell id="GMa8dljinRbpCNh-_MKq-4" value="seleziona" style="text;html=1;align=center;verticalAlign=middle;resizable=0;points=[];autosize=1;strokeColor=none;fillColor=none;" parent="1" vertex="1">
          <mxGeometry x="429" y="782" width="61" height="18" as="geometry" />
        </mxCell>
        <mxCell id="GMa8dljinRbpCNh-_MKq-6" value="0..*" style="text;html=1;align=center;verticalAlign=middle;resizable=0;points=[];autosize=1;strokeColor=none;fillColor=none;" parent="1" vertex="1">
          <mxGeometry x="334" y="677" width="28" height="18" as="geometry" />
        </mxCell>
        <mxCell id="GMa8dljinRbpCNh-_MKq-7" value="1..*" style="text;html=1;align=center;verticalAlign=middle;resizable=0;points=[];autosize=1;strokeColor=none;fillColor=none;" parent="1" vertex="1">
          <mxGeometry x="448" y="852" width="28" height="18" as="geometry" />
        </mxCell>
        <mxCell id="GMa8dljinRbpCNh-_MKq-23" style="edgeStyle=orthogonalEdgeStyle;rounded=0;orthogonalLoop=1;jettySize=auto;html=1;exitX=1;exitY=0.5;exitDx=0;exitDy=0;entryX=0.007;entryY=0.352;entryDx=0;entryDy=0;entryPerimeter=0;endArrow=none;endFill=0;" parent="1" source="GMa8dljinRbpCNh-_MKq-21" target="l8wX_0Qu8CBymqKlJUEb-43" edge="1">
          <mxGeometry relative="1" as="geometry" />
        </mxCell>
        <mxCell id="GMa8dljinRbpCNh-_MKq-21" value="Periodo" style="swimlane;childLayout=stackLayout;horizontal=1;startSize=30;horizontalStack=0;rounded=1;fontSize=14;fontStyle=0;strokeWidth=2;resizeParent=0;resizeLast=1;shadow=1;dashed=0;align=center;gradientColor=none;" parent="1" vertex="1">
          <mxGeometry x="-284" y="609" width="224" height="140" as="geometry" />
        </mxCell>
        <mxCell id="GMa8dljinRbpCNh-_MKq-22" value="- giorno inizio&lt;br&gt;- giorno fine" style="text;html=1;align=left;verticalAlign=top;resizable=0;points=[];autosize=1;strokeColor=none;fillColor=none;" parent="GMa8dljinRbpCNh-_MKq-21" vertex="1">
          <mxGeometry y="30" width="224" height="110" as="geometry" />
        </mxCell>
      </root>
    </mxGraphModel>
  </diagram>
</mxfile>
